  0
SECTION
  2
HEADER
  9
$ACADVER
  1
AC1009
  9
$INSUNITS
 70
     1
  0
ENDSEC
  0
SECTION
  2
TABLES
  0
TABLE
  2
LAYER
 70
     8
  0
LAYER
  2
0
 62
     7
 70
0
  6
CONTINUOUS
  0
LAYER
  2
1
 62
     1
 70
0
  6
CONTINUOUS
  0
LAYER
  2
2
 62
     2
 70
0
  6
CONTINUOUS
  0
LAYER
  2
3
 62
     3
 70
0
  6
CONTINUOUS
  0
LAYER
  2
4
 62
     4
 70
0
  6
CONTINUOUS
  0
LAYER
  2
5
 62
     5
 70
0
  6
CONTINUOUS
  0
LAYER
  2
6
 62
     6
 70
0
  6
CONTINUOUS
  0
LAYER
  2
7
 62
     7
 70
0
  6
CONTINUOUS
  0
ENDTAB
  0
TABLE
  2
STYLE
 70
     1
  0
STYLE
 70
     0
  2
STANDARD
  3
TXT
 40
0.00
 41
1.00
 42
1.00
 50
0.00
 71
     0
  0
ENDTAB
  0
ENDSEC
  0
SECTION
  2
BLOCKS
  0
BLOCK
  8
0
  2
EPAD
 70
0
 10
0.0
 20
0.0
  0
POLYLINE
  8
0
 66
1
 70
1
 40
0.5
 41
0.5
  0
VERTEX
  8
0
 10
-0.25
 20
0.0
 42
1.0
  0
VERTEX
  8
0
 10
0.25
 20
0.0
 42
1.0
  0
SEQEND
  8
0
  0
ENDBLK
  8
0
  0
BLOCK
  8
0
  2
RPAD
 70
0
 10
0.0
 20
0.0
  0
TRACE
  8
0
 10
-0.5
 20
-0.5
 11
-0.5
 21
0.5
 12
0.5
 22
-0.5
 13
0.5
 23
0.5
  0
ENDBLK
  8
0
  0
ENDSEC
0
SECTION
2
ENTITIES
0
POLYLINE
8
0
66
1
40
0.016000
41
0.016000
0
VERTEX
8
0
10
2.400000
20
8.900000
0
VERTEX
8
0
10
2.700000
20
8.900000
0
VERTEX
8
0
10
2.700000
20
8.500000
0
VERTEX
8
0
10
2.900000
20
8.500000
0
VERTEX
8
0
10
2.900000
20
6.400000
0
VERTEX
8
0
10
3.300000
20
6.400000
0
VERTEX
8
0
10
3.300000
20
1.800000
0
SEQEND
8
0
0
POLYLINE
8
0
66
1
40
0.016000
41
0.016000
0
VERTEX
8
0
10
3.500000
20
8.900000
0
VERTEX
8
0
10
3.600000
20
8.900000
0
VERTEX
8
0
10
3.600000
20
9.100000
0
VERTEX
8
0
10
0.900000
20
9.100000
0
VERTEX
8
0
10
0.900000
20
5.700000
0
VERTEX
8
0
10
1.400000
20
5.700000
0
VERTEX
8
0
10
1.400000
20
3.700000
0
VERTEX
8
0
10
3.100000
20
3.700000
0
VERTEX
8
0
10
3.100000
20
1.700000
0
SEQEND
8
0
0
POLYLINE
8
0
66
1
40
0.016000
41
0.016000
0
VERTEX
8
0
10
-0.250000
20
-2.100000
0
VERTEX
8
0
10
-0.100000
20
-2.100000
0
VERTEX
8
0
10
-0.100000
20
-1.800000
0
SEQEND
8
0
0
POLYLINE
8
0
66
1
40
0.016000
41
0.016000
0
VERTEX
8
0
10
-0.250000
20
-1.800000
0
VERTEX
8
0
10
-0.100000
20
-1.800000
0
VERTEX
8
0
10
-0.100000
20
-1.500000
0
SEQEND
8
0
0
POLYLINE
8
0
66
1
40
0.016000
41
0.016000
0
VERTEX
8
0
10
-0.250000
20
-1.500000
0
VERTEX
8
0
10
-0.100000
20
-1.500000
0
SEQEND
8
0
0
POLYLINE
8
0
66
1
40
0.016000
41
0.016000
0
VERTEX
8
0
10
-0.100000
20
-1.000000
0
VERTEX
8
0
10
-0.100000
20
-1.200000
0
SEQEND
8
0
0
POLYLINE
8
0
66
1
40
0.016000
41
0.016000
0
VERTEX
8
0
10
-0.100000
20
-1.500000
0
VERTEX
8
0
10
-0.100000
20
-1.200000
0
SEQEND
8
0
0
POLYLINE
8
0
66
1
40
0.016000
41
0.016000
0
VERTEX
8
0
10
-0.250000
20
-1.200000
0
VERTEX
8
0
10
-0.100000
20
-1.200000
0
SEQEND
8
0
0
POLYLINE
8
0
66
1
40
0.016000
41
0.016000
0
VERTEX
8
0
10
-2.000000
20
-1.200000
0
VERTEX
8
0
10
-1.200000
20
-1.200000
0
SEQEND
8
0
0
POLYLINE
8
0
66
1
40
0.016000
41
0.016000
0
VERTEX
8
0
10
-0.750000
20
-1.200000
0
VERTEX
8
0
10
-1.200000
20
-1.200000
0
SEQEND
8
0
0
POLYLINE
8
0
66
1
40
0.016000
41
0.016000
0
VERTEX
8
0
10
-1.200000
20
-0.400000
0
VERTEX
8
0
10
-1.200000
20
-1.200000
0
SEQEND
8
0
0
POLYLINE
8
0
66
1
40
0.016000
41
0.016000
0
VERTEX
8
0
10
-2.000000
20
-1.500000
0
VERTEX
8
0
10
-1.300000
20
-1.500000
0
SEQEND
8
0
0
POLYLINE
8
0
66
1
40
0.016000
41
0.016000
0
VERTEX
8
0
10
-0.750000
20
-1.500000
0
VERTEX
8
0
10
-1.300000
20
-1.500000
0
SEQEND
8
0
0
POLYLINE
8
0
66
1
40
0.016000
41
0.016000
0
VERTEX
8
0
10
-1.300000
20
-0.400000
0
VERTEX
8
0
10
-1.300000
20
-1.500000
0
SEQEND
8
0
0
POLYLINE
8
0
66
1
40
0.016000
41
0.016000
0
VERTEX
8
0
10
-2.000000
20
-1.800000
0
VERTEX
8
0
10
-1.400000
20
-1.800000
0
SEQEND
8
0
0
POLYLINE
8
0
66
1
40
0.016000
41
0.016000
0
VERTEX
8
0
10
-0.750000
20
-1.800000
0
VERTEX
8
0
10
-1.400000
20
-1.800000
0
SEQEND
8
0
0
POLYLINE
8
0
66
1
40
0.016000
41
0.016000
0
VERTEX
8
0
10
-1.400000
20
-0.400000
0
VERTEX
8
0
10
-1.400000
20
-1.800000
0
SEQEND
8
0
0
POLYLINE
8
0
66
1
40
0.016000
41
0.016000
0
VERTEX
8
0
10
-2.000000
20
-2.100000
0
VERTEX
8
0
10
-1.500000
20
-2.100000
0
SEQEND
8
0
0
POLYLINE
8
0
66
1
40
0.016000
41
0.016000
0
VERTEX
8
0
10
-0.750000
20
-2.100000
0
VERTEX
8
0
10
-1.500000
20
-2.100000
0
SEQEND
8
0
0
POLYLINE
8
0
66
1
40
0.016000
41
0.016000
0
VERTEX
8
0
10
-1.500000
20
-0.400000
0
VERTEX
8
0
10
-1.500000
20
-2.100000
0
SEQEND
8
0
0
POLYLINE
8
0
66
1
40
0.016000
41
0.016000
0
VERTEX
8
0
10
-1.900000
20
-0.400000
0
VERTEX
8
0
10
-1.900000
20
-0.500000
0
VERTEX
8
0
10
-2.000000
20
-0.500000
0
SEQEND
8
0
0
POLYLINE
8
0
66
1
40
0.016000
41
0.016000
0
VERTEX
8
0
10
-1.800000
20
-0.400000
0
VERTEX
8
0
10
-1.800000
20
-0.600000
0
VERTEX
8
0
10
-2.000000
20
-0.600000
0
SEQEND
8
0
0
POLYLINE
8
0
66
1
40
0.016000
41
0.016000
0
VERTEX
8
0
10
-1.700000
20
-0.400000
0
VERTEX
8
0
10
-1.700000
20
-0.700000
0
VERTEX
8
0
10
-2.000000
20
-0.700000
0
SEQEND
8
0
0
POLYLINE
8
0
66
1
40
0.016000
41
0.016000
0
VERTEX
8
0
10
-1.600000
20
-0.400000
0
VERTEX
8
0
10
-1.600000
20
-0.800000
0
VERTEX
8
0
10
-2.000000
20
-0.800000
0
SEQEND
8
0
0
POLYLINE
8
0
66
1
40
0.016000
41
0.016000
0
VERTEX
8
0
10
-1.900000
20
0.400000
0
VERTEX
8
0
10
-1.900000
20
0.300000
0
SEQEND
8
0
0
POLYLINE
8
0
66
1
40
0.016000
41
0.016000
0
VERTEX
8
0
10
-1.900000
20
0.200000
0
VERTEX
8
0
10
-1.900000
20
0.300000
0
SEQEND
8
0
0
POLYLINE
8
0
66
1
40
0.016000
41
0.016000
0
VERTEX
8
0
10
-1.800000
20
0.200000
0
VERTEX
8
0
10
-1.800000
20
0.300000
0
SEQEND
8
0
0
POLYLINE
8
0
66
1
40
0.016000
41
0.016000
0
VERTEX
8
0
10
-1.900000
20
0.300000
0
VERTEX
8
0
10
-1.800000
20
0.300000
0
SEQEND
8
0
0
POLYLINE
8
0
66
1
40
0.016000
41
0.016000
0
VERTEX
8
0
10
-1.700000
20
0.200000
0
VERTEX
8
0
10
-1.700000
20
0.300000
0
SEQEND
8
0
0
POLYLINE
8
0
66
1
40
0.016000
41
0.016000
0
VERTEX
8
0
10
-1.800000
20
0.300000
0
VERTEX
8
0
10
-1.700000
20
0.300000
0
SEQEND
8
0
0
POLYLINE
8
0
66
1
40
0.016000
41
0.016000
0
VERTEX
8
0
10
-1.600000
20
0.200000
0
VERTEX
8
0
10
-1.600000
20
0.300000
0
VERTEX
8
0
10
-1.700000
20
0.300000
0
SEQEND
8
0
0
POLYLINE
8
0
66
1
40
0.016000
41
0.016000
0
VERTEX
8
0
10
-1.500000
20
0.200000
0
VERTEX
8
0
10
-1.500000
20
0.300000
0
VERTEX
8
0
10
-1.400000
20
0.300000
0
SEQEND
8
0
0
POLYLINE
8
0
66
1
40
0.016000
41
0.016000
0
VERTEX
8
0
10
-1.400000
20
0.200000
0
VERTEX
8
0
10
-1.400000
20
0.300000
0
VERTEX
8
0
10
-1.300000
20
0.300000
0
SEQEND
8
0
0
POLYLINE
8
0
66
1
40
0.016000
41
0.016000
0
VERTEX
8
0
10
-1.300000
20
0.200000
0
VERTEX
8
0
10
-1.300000
20
0.300000
0
VERTEX
8
0
10
-1.200000
20
0.300000
0
SEQEND
8
0
0
POLYLINE
8
0
66
1
40
0.016000
41
0.016000
0
VERTEX
8
0
10
-0.700000
20
0.100000
0
VERTEX
8
0
10
-0.700000
20
0.300000
0
VERTEX
8
0
10
-1.200000
20
0.300000
0
SEQEND
8
0
0
POLYLINE
8
0
66
1
40
0.016000
41
0.016000
0
VERTEX
8
0
10
-1.200000
20
0.200000
0
VERTEX
8
0
10
-1.200000
20
0.300000
0
SEQEND
8
0
0
POLYLINE
8
0
66
1
40
0.016000
41
0.016000
0
VERTEX
8
0
10
-0.800000
20
1.400000
0
VERTEX
8
0
10
-0.800000
20
1.200000
0
SEQEND
8
0
0
POLYLINE
8
0
66
1
40
0.016000
41
0.016000
0
VERTEX
8
0
10
-0.800000
20
1.800000
0
VERTEX
8
0
10
-0.800000
20
2.000000
0
SEQEND
8
0
0
POLYLINE
8
0
66
1
40
0.016000
41
0.016000
0
VERTEX
8
0
10
2.300000
20
0.100000
0
VERTEX
8
0
10
2.500000
20
0.100000
0
SEQEND
8
0
0
TEXT
8
0
10
2.400000
20
0.118000
40
0.080000
41
1.000000
1
RD0
0
POLYLINE
8
0
66
1
40
0.016000
41
0.016000
0
VERTEX
8
0
10
2.300000
20
0.000000
0
VERTEX
8
0
10
2.500000
20
0.000000
0
SEQEND
8
0
0
TEXT
8
0
10
2.400000
20
0.018000
40
0.080000
41
1.000000
1
RD1
0
POLYLINE
8
0
66
1
40
0.016000
41
0.016000
0
VERTEX
8
0
10
2.300000
20
-0.100000
0
VERTEX
8
0
10
2.500000
20
-0.100000
0
SEQEND
8
0
0
TEXT
8
0
10
2.400000
20
-0.082000
40
0.080000
41
1.000000
1
RD2
0
POLYLINE
8
0
66
1
40
0.016000
41
0.016000
0
VERTEX
8
0
10
2.300000
20
-0.200000
0
VERTEX
8
0
10
2.500000
20
-0.200000
0
SEQEND
8
0
0
TEXT
8
0
10
2.400000
20
-0.182000
40
0.080000
41
1.000000
1
RD3
0
POLYLINE
8
0
66
1
40
0.016000
41
0.016000
0
VERTEX
8
0
10
2.300000
20
-0.300000
0
VERTEX
8
0
10
2.500000
20
-0.300000
0
SEQEND
8
0
0
TEXT
8
0
10
2.400000
20
-0.282000
40
0.080000
41
1.000000
1
RD4
0
POLYLINE
8
0
66
1
40
0.016000
41
0.016000
0
VERTEX
8
0
10
2.300000
20
-0.400000
0
VERTEX
8
0
10
2.500000
20
-0.400000
0
SEQEND
8
0
0
TEXT
8
0
10
2.400000
20
-0.382000
40
0.080000
41
1.000000
1
RD5
0
POLYLINE
8
0
66
1
40
0.016000
41
0.016000
0
VERTEX
8
0
10
2.300000
20
-0.500000
0
VERTEX
8
0
10
2.500000
20
-0.500000
0
SEQEND
8
0
0
TEXT
8
0
10
2.400000
20
-0.482000
40
0.080000
41
1.000000
1
RD6
0
POLYLINE
8
0
66
1
40
0.016000
41
0.016000
0
VERTEX
8
0
10
2.300000
20
-0.600000
0
VERTEX
8
0
10
2.500000
20
-0.600000
0
SEQEND
8
0
0
TEXT
8
0
10
2.400000
20
-0.582000
40
0.080000
41
1.000000
1
RD7
0
POLYLINE
8
0
66
1
40
0.016000
41
0.016000
0
VERTEX
8
0
10
0.400000
20
1.400000
0
VERTEX
8
0
10
0.200000
20
1.400000
0
SEQEND
8
0
0
TEXT
8
0
10
0.200000
20
1.418000
40
0.080000
41
1.000000
1
KB0
0
POLYLINE
8
0
66
1
40
0.016000
41
0.016000
0
VERTEX
8
0
10
0.400000
20
1.300000
0
VERTEX
8
0
10
0.200000
20
1.300000
0
SEQEND
8
0
0
TEXT
8
0
10
0.200000
20
1.318000
40
0.080000
41
1.000000
1
KB1
0
POLYLINE
8
0
66
1
40
0.016000
41
0.016000
0
VERTEX
8
0
10
0.400000
20
1.200000
0
VERTEX
8
0
10
0.200000
20
1.200000
0
SEQEND
8
0
0
TEXT
8
0
10
0.200000
20
1.218000
40
0.080000
41
1.000000
1
KB2
0
POLYLINE
8
0
66
1
40
0.016000
41
0.016000
0
VERTEX
8
0
10
0.400000
20
1.100000
0
VERTEX
8
0
10
0.200000
20
1.100000
0
SEQEND
8
0
0
TEXT
8
0
10
0.200000
20
1.118000
40
0.080000
41
1.000000
1
KB3
0
POLYLINE
8
0
66
1
40
0.016000
41
0.016000
0
VERTEX
8
0
10
-0.800000
20
0.700000
0
VERTEX
8
0
10
0.100000
20
0.700000
0
SEQEND
8
0
0
POLYLINE
8
0
66
1
40
0.016000
41
0.016000
0
VERTEX
8
0
10
0.400000
20
0.700000
0
VERTEX
8
0
10
0.100000
20
0.700000
0
SEQEND
8
0
0
CIRCLE
8
0
10
-0.620000
20
-1.200000
40
0.030000
0
CIRCLE
8
0
10
-0.380000
20
-1.200000
40
0.030000
0
POLYLINE
8
0
66
1
40
0.016000
41
0.016000
0
VERTEX
8
0
10
-0.360000
20
-1.120000
0
VERTEX
8
0
10
-0.640000
20
-1.120000
0
SEQEND
8
0
0
POLYLINE
8
0
66
1
40
0.016000
41
0.016000
0
VERTEX
8
0
10
-0.580000
20
-1.120000
0
VERTEX
8
0
10
-0.420000
20
-1.120000
0
VERTEX
8
0
10
-0.420000
20
-1.070000
0
VERTEX
8
0
10
-0.580000
20
-1.070000
0
VERTEX
8
0
10
-0.580000
20
-1.120000
0
SEQEND
8
0
0
POLYLINE
8
0
66
1
40
0.016000
41
0.016000
0
VERTEX
8
0
10
-0.250000
20
-1.200000
0
VERTEX
8
0
10
-0.350000
20
-1.200000
0
SEQEND
8
0
0
POLYLINE
8
0
66
1
40
0.016000
41
0.016000
0
VERTEX
8
0
10
-0.750000
20
-1.200000
0
VERTEX
8
0
10
-0.650000
20
-1.200000
0
SEQEND
8
0
0
CIRCLE
8
0
10
-0.700000
20
-1.100000
40
0.040000
0
POLYLINE
8
0
66
1
40
0.008000
41
0.008000
0
VERTEX
8
0
10
-0.700000
20
-1.120000
0
VERTEX
8
0
10
-0.700000
20
-1.080000
0
SEQEND
8
0
0
POLYLINE
8
0
66
1
40
0.008000
41
0.008000
0
VERTEX
8
0
10
-0.700000
20
-1.120000
0
VERTEX
8
0
10
-0.690000
20
-1.110000
0
SEQEND
8
0
0
POLYLINE
8
0
66
1
40
0.008000
41
0.008000
0
VERTEX
8
0
10
-0.700000
20
-1.120000
0
VERTEX
8
0
10
-0.710000
20
-1.110000
0
SEQEND
8
0
0
POLYLINE
8
0
66
1
40
0.008000
41
0.008000
0
VERTEX
8
0
10
-0.690000
20
-1.090000
0
VERTEX
8
0
10
-0.700000
20
-1.080000
0
VERTEX
8
0
10
-0.710000
20
-1.090000
0
SEQEND
8
0
0
TEXT
8
0
10
-0.658000
20
-1.047000
40
0.120000
41
0.666667
1
RESET
0
CIRCLE
8
0
10
-0.620000
20
-1.500000
40
0.030000
0
CIRCLE
8
0
10
-0.380000
20
-1.500000
40
0.030000
0
POLYLINE
8
0
66
1
40
0.016000
41
0.016000
0
VERTEX
8
0
10
-0.360000
20
-1.420000
0
VERTEX
8
0
10
-0.640000
20
-1.420000
0
SEQEND
8
0
0
POLYLINE
8
0
66
1
40
0.016000
41
0.016000
0
VERTEX
8
0
10
-0.580000
20
-1.420000
0
VERTEX
8
0
10
-0.420000
20
-1.420000
0
VERTEX
8
0
10
-0.420000
20
-1.370000
0
VERTEX
8
0
10
-0.580000
20
-1.370000
0
VERTEX
8
0
10
-0.580000
20
-1.420000
0
SEQEND
8
0
0
POLYLINE
8
0
66
1
40
0.016000
41
0.016000
0
VERTEX
8
0
10
-0.250000
20
-1.500000
0
VERTEX
8
0
10
-0.350000
20
-1.500000
0
SEQEND
8
0
0
POLYLINE
8
0
66
1
40
0.016000
41
0.016000
0
VERTEX
8
0
10
-0.750000
20
-1.500000
0
VERTEX
8
0
10
-0.650000
20
-1.500000
0
SEQEND
8
0
0
CIRCLE
8
0
10
-0.700000
20
-1.400000
40
0.040000
0
POLYLINE
8
0
66
1
40
0.008000
41
0.008000
0
VERTEX
8
0
10
-0.700000
20
-1.420000
0
VERTEX
8
0
10
-0.700000
20
-1.380000
0
SEQEND
8
0
0
POLYLINE
8
0
66
1
40
0.008000
41
0.008000
0
VERTEX
8
0
10
-0.700000
20
-1.420000
0
VERTEX
8
0
10
-0.690000
20
-1.410000
0
SEQEND
8
0
0
POLYLINE
8
0
66
1
40
0.008000
41
0.008000
0
VERTEX
8
0
10
-0.700000
20
-1.420000
0
VERTEX
8
0
10
-0.710000
20
-1.410000
0
SEQEND
8
0
0
POLYLINE
8
0
66
1
40
0.008000
41
0.008000
0
VERTEX
8
0
10
-0.690000
20
-1.390000
0
VERTEX
8
0
10
-0.700000
20
-1.380000
0
VERTEX
8
0
10
-0.710000
20
-1.390000
0
SEQEND
8
0
0
TEXT
8
0
10
-0.518000
20
-1.347000
40
0.120000
41
0.666667
1
UP
0
CIRCLE
8
0
10
-0.620000
20
-1.800000
40
0.030000
0
CIRCLE
8
0
10
-0.380000
20
-1.800000
40
0.030000
0
POLYLINE
8
0
66
1
40
0.016000
41
0.016000
0
VERTEX
8
0
10
-0.360000
20
-1.720000
0
VERTEX
8
0
10
-0.640000
20
-1.720000
0
SEQEND
8
0
0
POLYLINE
8
0
66
1
40
0.016000
41
0.016000
0
VERTEX
8
0
10
-0.580000
20
-1.720000
0
VERTEX
8
0
10
-0.420000
20
-1.720000
0
VERTEX
8
0
10
-0.420000
20
-1.670000
0
VERTEX
8
0
10
-0.580000
20
-1.670000
0
VERTEX
8
0
10
-0.580000
20
-1.720000
0
SEQEND
8
0
0
POLYLINE
8
0
66
1
40
0.016000
41
0.016000
0
VERTEX
8
0
10
-0.250000
20
-1.800000
0
VERTEX
8
0
10
-0.350000
20
-1.800000
0
SEQEND
8
0
0
POLYLINE
8
0
66
1
40
0.016000
41
0.016000
0
VERTEX
8
0
10
-0.750000
20
-1.800000
0
VERTEX
8
0
10
-0.650000
20
-1.800000
0
SEQEND
8
0
0
CIRCLE
8
0
10
-0.700000
20
-1.700000
40
0.040000
0
POLYLINE
8
0
66
1
40
0.008000
41
0.008000
0
VERTEX
8
0
10
-0.700000
20
-1.720000
0
VERTEX
8
0
10
-0.700000
20
-1.680000
0
SEQEND
8
0
0
POLYLINE
8
0
66
1
40
0.008000
41
0.008000
0
VERTEX
8
0
10
-0.700000
20
-1.720000
0
VERTEX
8
0
10
-0.690000
20
-1.710000
0
SEQEND
8
0
0
POLYLINE
8
0
66
1
40
0.008000
41
0.008000
0
VERTEX
8
0
10
-0.700000
20
-1.720000
0
VERTEX
8
0
10
-0.710000
20
-1.710000
0
SEQEND
8
0
0
POLYLINE
8
0
66
1
40
0.008000
41
0.008000
0
VERTEX
8
0
10
-0.690000
20
-1.690000
0
VERTEX
8
0
10
-0.700000
20
-1.680000
0
VERTEX
8
0
10
-0.710000
20
-1.690000
0
SEQEND
8
0
0
TEXT
8
0
10
-0.578000
20
-1.647000
40
0.120000
41
0.666667
1
DOWN
0
CIRCLE
8
0
10
-0.620000
20
-2.100000
40
0.030000
0
CIRCLE
8
0
10
-0.380000
20
-2.100000
40
0.030000
0
POLYLINE
8
0
66
1
40
0.016000
41
0.016000
0
VERTEX
8
0
10
-0.360000
20
-2.020000
0
VERTEX
8
0
10
-0.640000
20
-2.020000
0
SEQEND
8
0
0
POLYLINE
8
0
66
1
40
0.016000
41
0.016000
0
VERTEX
8
0
10
-0.580000
20
-2.020000
0
VERTEX
8
0
10
-0.420000
20
-2.020000
0
VERTEX
8
0
10
-0.420000
20
-1.970000
0
VERTEX
8
0
10
-0.580000
20
-1.970000
0
VERTEX
8
0
10
-0.580000
20
-2.020000
0
SEQEND
8
0
0
POLYLINE
8
0
66
1
40
0.016000
41
0.016000
0
VERTEX
8
0
10
-0.250000
20
-2.100000
0
VERTEX
8
0
10
-0.350000
20
-2.100000
0
SEQEND
8
0
0
POLYLINE
8
0
66
1
40
0.016000
41
0.016000
0
VERTEX
8
0
10
-0.750000
20
-2.100000
0
VERTEX
8
0
10
-0.650000
20
-2.100000
0
SEQEND
8
0
0
CIRCLE
8
0
10
-0.700000
20
-2.000000
40
0.040000
0
POLYLINE
8
0
66
1
40
0.008000
41
0.008000
0
VERTEX
8
0
10
-0.700000
20
-2.020000
0
VERTEX
8
0
10
-0.700000
20
-1.980000
0
SEQEND
8
0
0
POLYLINE
8
0
66
1
40
0.008000
41
0.008000
0
VERTEX
8
0
10
-0.700000
20
-2.020000
0
VERTEX
8
0
10
-0.690000
20
-2.010000
0
SEQEND
8
0
0
POLYLINE
8
0
66
1
40
0.008000
41
0.008000
0
VERTEX
8
0
10
-0.700000
20
-2.020000
0
VERTEX
8
0
10
-0.710000
20
-2.010000
0
SEQEND
8
0
0
POLYLINE
8
0
66
1
40
0.008000
41
0.008000
0
VERTEX
8
0
10
-0.690000
20
-1.990000
0
VERTEX
8
0
10
-0.700000
20
-1.980000
0
VERTEX
8
0
10
-0.710000
20
-1.990000
0
SEQEND
8
0
0
TEXT
8
0
10
-0.478000
20
-1.947000
40
0.120000
41
0.666667
1
MODE
0
POLYLINE
8
0
66
1
40
0.016000
41
0.016000
0
VERTEX
8
0
10
-0.050000
20
-0.900000
0
VERTEX
8
0
10
-0.100000
20
-0.800000
0
VERTEX
8
0
10
-0.150000
20
-0.900000
0
VERTEX
8
0
10
-0.050000
20
-0.900000
0
SEQEND
8
0
0
POLYLINE
8
0
66
1
40
0.016000
41
0.016000
0
VERTEX
8
0
10
-0.100000
20
-1.000000
0
VERTEX
8
0
10
-0.100000
20
-0.800000
0
SEQEND
8
0
0
TEXT
8
0
10
-0.240000
20
-0.740000
40
0.080000
41
1.000000
1
VCC
0
CIRCLE
8
0
10
-0.100000
20
-1.800000
40
0.020000
0
CIRCLE
8
0
10
-0.100000
20
-1.500000
40
0.020000
0
CIRCLE
8
0
10
-0.100000
20
-1.200000
40
0.020000
0
CIRCLE
8
0
10
-2.160000
20
-1.200000
40
0.040000
0
POLYLINE
8
0
66
1
40
0.016000
41
0.016000
0
VERTEX
8
0
10
-2.120000
20
-1.200000
0
VERTEX
8
0
10
-2.000000
20
-1.200000
0
SEQEND
8
0
0
TEXT
8
0
10
-2.490000
20
-1.240000
40
0.080000
41
1.000000
1
KB0
0
CIRCLE
8
0
10
-2.160000
20
-1.500000
40
0.040000
0
POLYLINE
8
0
66
1
40
0.016000
41
0.016000
0
VERTEX
8
0
10
-2.120000
20
-1.500000
0
VERTEX
8
0
10
-2.000000
20
-1.500000
0
SEQEND
8
0
0
TEXT
8
0
10
-2.490000
20
-1.540000
40
0.080000
41
1.000000
1
KB1
0
CIRCLE
8
0
10
-2.160000
20
-1.800000
40
0.040000
0
POLYLINE
8
0
66
1
40
0.016000
41
0.016000
0
VERTEX
8
0
10
-2.120000
20
-1.800000
0
VERTEX
8
0
10
-2.000000
20
-1.800000
0
SEQEND
8
0
0
TEXT
8
0
10
-2.490000
20
-1.840000
40
0.080000
41
1.000000
1
KB2
0
CIRCLE
8
0
10
-2.160000
20
-2.100000
40
0.040000
0
POLYLINE
8
0
66
1
40
0.016000
41
0.016000
0
VERTEX
8
0
10
-2.120000
20
-2.100000
0
VERTEX
8
0
10
-2.000000
20
-2.100000
0
SEQEND
8
0
0
TEXT
8
0
10
-2.490000
20
-2.140000
40
0.080000
41
1.000000
1
KB3
0
POLYLINE
8
0
66
1
40
0.016000
41
0.016000
0
VERTEX
8
0
10
-0.700000
20
0.100000
0
VERTEX
8
0
10
-0.700000
20
0.000000
0
SEQEND
8
0
0
POLYLINE
8
0
66
1
40
0.016000
41
0.016000
0
VERTEX
8
0
10
-0.600000
20
0.000000
0
VERTEX
8
0
10
-0.800000
20
0.000000
0
SEQEND
8
0
0
POLYLINE
8
0
66
1
40
0.016000
41
0.016000
0
VERTEX
8
0
10
-0.650000
20
-0.050000
0
VERTEX
8
0
10
-0.750000
20
-0.050000
0
SEQEND
8
0
0
POLYLINE
8
0
66
1
40
0.016000
41
0.016000
0
VERTEX
8
0
10
-0.690000
20
-0.100000
0
VERTEX
8
0
10
-0.710000
20
-0.100000
0
SEQEND
8
0
0
POLYLINE
8
0
66
1
40
0.016000
41
0.016000
0
VERTEX
8
0
10
-2.000000
20
-0.200000
0
VERTEX
8
0
10
-1.100000
20
-0.200000
0
VERTEX
8
0
10
-1.100000
20
0.000000
0
VERTEX
8
0
10
-2.000000
20
0.000000
0
VERTEX
8
0
10
-2.000000
20
-0.200000
0
SEQEND
8
0
0
POLYLINE
8
0
66
1
40
0.016000
41
0.016000
0
VERTEX
8
0
10
-1.900000
20
-0.400000
0
VERTEX
8
0
10
-1.900000
20
-0.200000
0
SEQEND
8
0
0
TEXT
8
0
10
-1.910000
20
-0.380000
40
0.080000
41
1.000000
50
90.000000
1
1
0
POLYLINE
8
0
66
1
40
0.016000
41
0.016000
0
VERTEX
8
0
10
-1.800000
20
-0.400000
0
VERTEX
8
0
10
-1.800000
20
-0.200000
0
SEQEND
8
0
0
TEXT
8
0
10
-1.810000
20
-0.380000
40
0.080000
41
1.000000
50
90.000000
1
2
0
POLYLINE
8
0
66
1
40
0.016000
41
0.016000
0
VERTEX
8
0
10
-1.700000
20
-0.400000
0
VERTEX
8
0
10
-1.700000
20
-0.200000
0
SEQEND
8
0
0
TEXT
8
0
10
-1.710000
20
-0.380000
40
0.080000
41
1.000000
50
90.000000
1
3
0
POLYLINE
8
0
66
1
40
0.016000
41
0.016000
0
VERTEX
8
0
10
-1.600000
20
-0.400000
0
VERTEX
8
0
10
-1.600000
20
-0.200000
0
SEQEND
8
0
0
TEXT
8
0
10
-1.610000
20
-0.380000
40
0.080000
41
1.000000
50
90.000000
1
4
0
POLYLINE
8
0
66
1
40
0.016000
41
0.016000
0
VERTEX
8
0
10
-1.500000
20
-0.400000
0
VERTEX
8
0
10
-1.500000
20
-0.200000
0
SEQEND
8
0
0
TEXT
8
0
10
-1.510000
20
-0.380000
40
0.080000
41
1.000000
50
90.000000
1
5
0
POLYLINE
8
0
66
1
40
0.016000
41
0.016000
0
VERTEX
8
0
10
-1.400000
20
-0.400000
0
VERTEX
8
0
10
-1.400000
20
-0.200000
0
SEQEND
8
0
0
TEXT
8
0
10
-1.410000
20
-0.380000
40
0.080000
41
1.000000
50
90.000000
1
6
0
POLYLINE
8
0
66
1
40
0.016000
41
0.016000
0
VERTEX
8
0
10
-1.300000
20
-0.400000
0
VERTEX
8
0
10
-1.300000
20
-0.200000
0
SEQEND
8
0
0
TEXT
8
0
10
-1.310000
20
-0.380000
40
0.080000
41
1.000000
50
90.000000
1
7
0
POLYLINE
8
0
66
1
40
0.016000
41
0.016000
0
VERTEX
8
0
10
-1.200000
20
-0.400000
0
VERTEX
8
0
10
-1.200000
20
-0.200000
0
SEQEND
8
0
0
TEXT
8
0
10
-1.210000
20
-0.380000
40
0.080000
41
1.000000
50
90.000000
1
8
0
POLYLINE
8
0
66
1
40
0.016000
41
0.016000
0
VERTEX
8
0
10
-1.900000
20
0.200000
0
VERTEX
8
0
10
-1.900000
20
0.000000
0
SEQEND
8
0
0
TEXT
8
0
10
-1.910000
20
0.100000
40
0.080000
41
1.000000
50
90.000000
1
16
0
POLYLINE
8
0
66
1
40
0.016000
41
0.016000
0
VERTEX
8
0
10
-1.800000
20
0.200000
0
VERTEX
8
0
10
-1.800000
20
0.000000
0
SEQEND
8
0
0
TEXT
8
0
10
-1.810000
20
0.100000
40
0.080000
41
1.000000
50
90.000000
1
15
0
POLYLINE
8
0
66
1
40
0.016000
41
0.016000
0
VERTEX
8
0
10
-1.700000
20
0.200000
0
VERTEX
8
0
10
-1.700000
20
0.000000
0
SEQEND
8
0
0
TEXT
8
0
10
-1.710000
20
0.100000
40
0.080000
41
1.000000
50
90.000000
1
14
0
POLYLINE
8
0
66
1
40
0.016000
41
0.016000
0
VERTEX
8
0
10
-1.600000
20
0.200000
0
VERTEX
8
0
10
-1.600000
20
0.000000
0
SEQEND
8
0
0
TEXT
8
0
10
-1.610000
20
0.100000
40
0.080000
41
1.000000
50
90.000000
1
13
0
POLYLINE
8
0
66
1
40
0.016000
41
0.016000
0
VERTEX
8
0
10
-1.500000
20
0.200000
0
VERTEX
8
0
10
-1.500000
20
0.000000
0
SEQEND
8
0
0
TEXT
8
0
10
-1.510000
20
0.100000
40
0.080000
41
1.000000
50
90.000000
1
12
0
POLYLINE
8
0
66
1
40
0.016000
41
0.016000
0
VERTEX
8
0
10
-1.400000
20
0.200000
0
VERTEX
8
0
10
-1.400000
20
0.000000
0
SEQEND
8
0
0
TEXT
8
0
10
-1.410000
20
0.100000
40
0.080000
41
1.000000
50
90.000000
1
11
0
POLYLINE
8
0
66
1
40
0.016000
41
0.016000
0
VERTEX
8
0
10
-1.300000
20
0.200000
0
VERTEX
8
0
10
-1.300000
20
0.000000
0
SEQEND
8
0
0
TEXT
8
0
10
-1.310000
20
0.100000
40
0.080000
41
1.000000
50
90.000000
1
10
0
POLYLINE
8
0
66
1
40
0.016000
41
0.016000
0
VERTEX
8
0
10
-1.200000
20
0.200000
0
VERTEX
8
0
10
-1.200000
20
0.000000
0
SEQEND
8
0
0
TEXT
8
0
10
-1.210000
20
0.100000
40
0.080000
41
1.000000
50
90.000000
1
9
0
TEXT
8
0
10
-1.042000
20
-0.127000
40
0.120000
41
0.666667
1
RN1
0
TEXT
8
0
10
-1.042000
20
-0.232000
40
0.080000
41
1.000000
1
4.7k
0
CIRCLE
8
0
10
-1.200000
20
-1.200000
40
0.020000
0
CIRCLE
8
0
10
-1.300000
20
-1.500000
40
0.020000
0
CIRCLE
8
0
10
-1.400000
20
-1.800000
40
0.020000
0
CIRCLE
8
0
10
-1.500000
20
-2.100000
40
0.020000
0
POLYLINE
8
0
66
1
40
0.016000
41
0.016000
0
VERTEX
8
0
10
-1.950000
20
0.500000
0
VERTEX
8
0
10
-1.900000
20
0.600000
0
VERTEX
8
0
10
-1.850000
20
0.500000
0
VERTEX
8
0
10
-1.950000
20
0.500000
0
SEQEND
8
0
0
POLYLINE
8
0
66
1
40
0.016000
41
0.016000
0
VERTEX
8
0
10
-1.900000
20
0.400000
0
VERTEX
8
0
10
-1.900000
20
0.600000
0
SEQEND
8
0
0
CIRCLE
8
0
10
-2.160000
20
-0.500000
40
0.040000
0
POLYLINE
8
0
66
1
40
0.016000
41
0.016000
0
VERTEX
8
0
10
-2.120000
20
-0.500000
0
VERTEX
8
0
10
-2.000000
20
-0.500000
0
SEQEND
8
0
0
TEXT
8
0
10
-2.330000
20
-0.540000
40
0.080000
41
1.000000
1
1
0
CIRCLE
8
0
10
-2.160000
20
-0.600000
40
0.040000
0
POLYLINE
8
0
66
1
40
0.016000
41
0.016000
0
VERTEX
8
0
10
-2.120000
20
-0.600000
0
VERTEX
8
0
10
-2.000000
20
-0.600000
0
SEQEND
8
0
0
TEXT
8
0
10
-2.330000
20
-0.640000
40
0.080000
41
1.000000
1
2
0
CIRCLE
8
0
10
-2.160000
20
-0.700000
40
0.040000
0
POLYLINE
8
0
66
1
40
0.016000
41
0.016000
0
VERTEX
8
0
10
-2.120000
20
-0.700000
0
VERTEX
8
0
10
-2.000000
20
-0.700000
0
SEQEND
8
0
0
TEXT
8
0
10
-2.330000
20
-0.740000
40
0.080000
41
1.000000
1
3
0
CIRCLE
8
0
10
-2.160000
20
-0.800000
40
0.040000
0
POLYLINE
8
0
66
1
40
0.016000
41
0.016000
0
VERTEX
8
0
10
-2.120000
20
-0.800000
0
VERTEX
8
0
10
-2.000000
20
-0.800000
0
SEQEND
8
0
0
TEXT
8
0
10
-2.330000
20
-0.840000
40
0.080000
41
1.000000
1
4
0
CIRCLE
8
0
10
-1.900000
20
0.300000
40
0.020000
0
CIRCLE
8
0
10
-1.800000
20
0.300000
40
0.020000
0
CIRCLE
8
0
10
-1.700000
20
0.300000
40
0.020000
0
CIRCLE
8
0
10
-1.400000
20
0.300000
40
0.020000
0
CIRCLE
8
0
10
-1.300000
20
0.300000
40
0.020000
0
CIRCLE
8
0
10
-1.200000
20
0.300000
40
0.020000
0
CIRCLE
8
0
10
-0.800000
20
1.600000
40
0.120000
0
POLYLINE
8
0
66
1
40
0.015000
41
0.015000
0
VERTEX
8
0
10
-0.750000
20
1.550000
0
VERTEX
8
0
10
-0.850000
20
1.550000
0
SEQEND
8
0
0
POLYLINE
8
0
66
1
40
0.016000
41
0.016000
0
VERTEX
8
0
10
-0.800000
20
1.700000
0
VERTEX
8
0
10
-0.800000
20
1.630000
0
SEQEND
8
0
0
POLYLINE
8
0
66
1
40
0.016000
41
0.016000
0
VERTEX
8
0
10
-0.800000
20
1.550000
0
VERTEX
8
0
10
-0.800000
20
1.500000
0
SEQEND
8
0
0
POLYLINE
8
0
66
1
40
0.015000
41
0.015000
0
VERTEX
8
0
10
-0.800000
20
1.550000
0
VERTEX
8
0
10
-0.860000
20
1.630000
0
VERTEX
8
0
10
-0.740000
20
1.630000
0
VERTEX
8
0
10
-0.800000
20
1.550000
0
SEQEND
8
0
0
POLYLINE
8
0
66
1
40
0.016000
41
0.016000
0
VERTEX
8
0
10
-0.800000
20
1.800000
0
VERTEX
8
0
10
-0.800000
20
1.700000
0
SEQEND
8
0
0
POLYLINE
8
0
66
1
40
0.016000
41
0.016000
0
VERTEX
8
0
10
-0.800000
20
1.400000
0
VERTEX
8
0
10
-0.800000
20
1.500000
0
SEQEND
8
0
0
TEXT
8
0
10
-0.622000
20
1.593000
40
0.120000
41
0.666667
1
D1
0
TEXT
8
0
10
-0.622000
20
1.488000
40
0.080000
41
1.000000
1
LED-RED
0
POLYLINE
8
0
66
1
40
0.016000
41
0.016000
0
VERTEX
8
0
10
-0.840000
20
0.800000
0
VERTEX
8
0
10
-0.760000
20
0.800000
0
VERTEX
8
0
10
-0.760000
20
1.100000
0
VERTEX
8
0
10
-0.840000
20
1.100000
0
VERTEX
8
0
10
-0.840000
20
0.800000
0
SEQEND
8
0
0
POLYLINE
8
0
66
1
40
0.016000
41
0.016000
0
VERTEX
8
0
10
-0.800000
20
1.200000
0
VERTEX
8
0
10
-0.800000
20
1.100000
0
SEQEND
8
0
0
POLYLINE
8
0
66
1
40
0.016000
41
0.016000
0
VERTEX
8
0
10
-0.800000
20
0.700000
0
VERTEX
8
0
10
-0.800000
20
0.800000
0
SEQEND
8
0
0
TEXT
8
0
10
-0.702000
20
0.973000
40
0.120000
41
0.666667
1
R12
0
TEXT
8
0
10
-0.702000
20
0.868000
40
0.080000
41
1.000000
1
330
0
POLYLINE
8
0
66
1
40
0.016000
41
0.016000
0
VERTEX
8
0
10
-0.850000
20
2.100000
0
VERTEX
8
0
10
-0.800000
20
2.200000
0
VERTEX
8
0
10
-0.750000
20
2.100000
0
VERTEX
8
0
10
-0.850000
20
2.100000
0
SEQEND
8
0
0
POLYLINE
8
0
66
1
40
0.016000
41
0.016000
0
VERTEX
8
0
10
-0.800000
20
2.000000
0
VERTEX
8
0
10
-0.800000
20
2.200000
0
SEQEND
8
0
0
POLYLINE
8
0
66
1
40
0.016000
41
0.016000
0
VERTEX
8
0
10
0.600000
20
-0.700000
0
VERTEX
8
0
10
2.100000
20
-0.700000
0
VERTEX
8
0
10
2.100000
20
2.000000
0
VERTEX
8
0
10
0.600000
20
2.000000
0
VERTEX
8
0
10
0.600000
20
-0.700000
0
SEQEND
8
0
0
POLYLINE
8
0
66
1
40
0.016000
41
0.016000
0
VERTEX
8
0
10
0.400000
20
1.600000
0
VERTEX
8
0
10
0.600000
20
1.600000
0
SEQEND
8
0
0
TEXT
8
0
10
0.650000
20
1.560000
40
0.080000
41
1.000000
1
RA0/AN0
0
TEXT
8
0
10
0.420000
20
1.610000
40
0.080000
41
1.000000
1
2
0
POLYLINE
8
0
66
1
40
0.016000
41
0.016000
0
VERTEX
8
0
10
0.400000
20
1.500000
0
VERTEX
8
0
10
0.600000
20
1.500000
0
SEQEND
8
0
0
TEXT
8
0
10
0.650000
20
1.460000
40
0.080000
41
1.000000
1
RA1/AN1
0
TEXT
8
0
10
0.420000
20
1.510000
40
0.080000
41
1.000000
1
3
0
POLYLINE
8
0
66
1
40
0.016000
41
0.016000
0
VERTEX
8
0
10
0.400000
20
1.400000
0
VERTEX
8
0
10
0.600000
20
1.400000
0
SEQEND
8
0
0
TEXT
8
0
10
0.650000
20
1.360000
40
0.080000
41
1.000000
1
RA2/AN2/VREF-/CVREF
0
TEXT
8
0
10
0.420000
20
1.410000
40
0.080000
41
1.000000
1
4
0
POLYLINE
8
0
66
1
40
0.016000
41
0.016000
0
VERTEX
8
0
10
0.400000
20
1.200000
0
VERTEX
8
0
10
0.600000
20
1.200000
0
SEQEND
8
0
0
TEXT
8
0
10
0.650000
20
1.160000
40
0.080000
41
1.000000
1
RA4/T0CKI/C1OUT
0
TEXT
8
0
10
0.420000
20
1.210000
40
0.080000
41
1.000000
1
6
0
POLYLINE
8
0
66
1
40
0.016000
41
0.016000
0
VERTEX
8
0
10
0.400000
20
1.100000
0
VERTEX
8
0
10
0.600000
20
1.100000
0
SEQEND
8
0
0
TEXT
8
0
10
0.650000
20
1.060000
40
0.080000
41
1.000000
1
RA5/AN4/SS/C2OUT
0
TEXT
8
0
10
0.420000
20
1.110000
40
0.080000
41
1.000000
1
7
0
POLYLINE
8
0
66
1
40
0.016000
41
0.016000
0
VERTEX
8
0
10
0.400000
20
0.900000
0
VERTEX
8
0
10
0.600000
20
0.900000
0
SEQEND
8
0
0
TEXT
8
0
10
0.650000
20
0.860000
40
0.080000
41
1.000000
1
RE0/AN5/RD
0
TEXT
8
0
10
0.420000
20
0.910000
40
0.080000
41
1.000000
1
8
0
POLYLINE
8
0
66
1
40
0.016000
41
0.016000
0
VERTEX
8
0
10
0.400000
20
0.800000
0
VERTEX
8
0
10
0.600000
20
0.800000
0
SEQEND
8
0
0
TEXT
8
0
10
0.650000
20
0.760000
40
0.080000
41
1.000000
1
RE1/AN6/WR
0
TEXT
8
0
10
0.420000
20
0.810000
40
0.080000
41
1.000000
1
9
0
POLYLINE
8
0
66
1
40
0.016000
41
0.016000
0
VERTEX
8
0
10
0.400000
20
0.700000
0
VERTEX
8
0
10
0.600000
20
0.700000
0
SEQEND
8
0
0
TEXT
8
0
10
0.650000
20
0.660000
40
0.080000
41
1.000000
1
RE2/AN7/CS
0
TEXT
8
0
10
0.340000
20
0.710000
40
0.080000
41
1.000000
1
10
0
POLYLINE
8
0
66
1
40
0.016000
41
0.016000
0
VERTEX
8
0
10
0.400000
20
1.900000
0
VERTEX
8
0
10
0.600000
20
1.900000
0
SEQEND
8
0
0
TEXT
8
0
10
0.650000
20
1.860000
40
0.080000
41
1.000000
1
OSC1/CLKIN
0
TEXT
8
0
10
0.340000
20
1.910000
40
0.080000
41
1.000000
1
13
0
POLYLINE
8
0
66
1
40
0.016000
41
0.016000
0
VERTEX
8
0
10
0.400000
20
1.800000
0
VERTEX
8
0
10
0.600000
20
1.800000
0
SEQEND
8
0
0
TEXT
8
0
10
0.650000
20
1.760000
40
0.080000
41
1.000000
1
OSC2/CLKOUT
0
TEXT
8
0
10
0.340000
20
1.810000
40
0.080000
41
1.000000
1
14
0
POLYLINE
8
0
66
1
40
0.016000
41
0.016000
0
VERTEX
8
0
10
2.300000
20
0.900000
0
VERTEX
8
0
10
2.100000
20
0.900000
0
SEQEND
8
0
0
TEXT
8
0
10
0.930000
20
0.860000
40
0.080000
41
1.000000
1
RC1/T1OSI/CCP2
0
TEXT
8
0
10
2.200000
20
0.910000
40
0.080000
41
1.000000
1
16
0
POLYLINE
8
0
66
1
40
0.016000
41
0.016000
0
VERTEX
8
0
10
2.300000
20
0.800000
0
VERTEX
8
0
10
2.100000
20
0.800000
0
SEQEND
8
0
0
TEXT
8
0
10
1.410000
20
0.760000
40
0.080000
41
1.000000
1
RC2/CCP1
0
TEXT
8
0
10
2.200000
20
0.810000
40
0.080000
41
1.000000
1
17
0
POLYLINE
8
0
66
1
40
0.016000
41
0.016000
0
VERTEX
8
0
10
2.300000
20
0.700000
0
VERTEX
8
0
10
2.100000
20
0.700000
0
SEQEND
8
0
0
TEXT
8
0
10
1.170000
20
0.660000
40
0.080000
41
1.000000
1
RC3/SCK/SCL
0
TEXT
8
0
10
2.200000
20
0.710000
40
0.080000
41
1.000000
1
18
0
POLYLINE
8
0
66
1
40
0.016000
41
0.016000
0
VERTEX
8
0
10
2.300000
20
0.100000
0
VERTEX
8
0
10
2.100000
20
0.100000
0
SEQEND
8
0
0
TEXT
8
0
10
1.410000
20
0.060000
40
0.080000
41
1.000000
1
RD0/PSP0
0
TEXT
8
0
10
2.200000
20
0.110000
40
0.080000
41
1.000000
1
19
0
POLYLINE
8
0
66
1
40
0.016000
41
0.016000
0
VERTEX
8
0
10
2.300000
20
0.000000
0
VERTEX
8
0
10
2.100000
20
0.000000
0
SEQEND
8
0
0
TEXT
8
0
10
1.410000
20
-0.040000
40
0.080000
41
1.000000
1
RD1/PSP1
0
TEXT
8
0
10
2.200000
20
0.010000
40
0.080000
41
1.000000
1
20
0
POLYLINE
8
0
66
1
40
0.016000
41
0.016000
0
VERTEX
8
0
10
2.300000
20
1.200000
0
VERTEX
8
0
10
2.100000
20
1.200000
0
SEQEND
8
0
0
TEXT
8
0
10
1.490000
20
1.160000
40
0.080000
41
1.000000
1
RB7/PGD
0
TEXT
8
0
10
2.200000
20
1.210000
40
0.080000
41
1.000000
1
40
0
POLYLINE
8
0
66
1
40
0.016000
41
0.016000
0
VERTEX
8
0
10
2.300000
20
1.300000
0
VERTEX
8
0
10
2.100000
20
1.300000
0
SEQEND
8
0
0
TEXT
8
0
10
1.490000
20
1.260000
40
0.080000
41
1.000000
1
RB6/PGC
0
TEXT
8
0
10
2.200000
20
1.310000
40
0.080000
41
1.000000
1
39
0
POLYLINE
8
0
66
1
40
0.016000
41
0.016000
0
VERTEX
8
0
10
2.300000
20
1.400000
0
VERTEX
8
0
10
2.100000
20
1.400000
0
SEQEND
8
0
0
TEXT
8
0
10
1.810000
20
1.360000
40
0.080000
41
1.000000
1
RB5
0
TEXT
8
0
10
2.200000
20
1.410000
40
0.080000
41
1.000000
1
38
0
POLYLINE
8
0
66
1
40
0.016000
41
0.016000
0
VERTEX
8
0
10
2.300000
20
1.500000
0
VERTEX
8
0
10
2.100000
20
1.500000
0
SEQEND
8
0
0
TEXT
8
0
10
1.810000
20
1.460000
40
0.080000
41
1.000000
1
RB4
0
TEXT
8
0
10
2.200000
20
1.510000
40
0.080000
41
1.000000
1
37
0
POLYLINE
8
0
66
1
40
0.016000
41
0.016000
0
VERTEX
8
0
10
2.300000
20
1.600000
0
VERTEX
8
0
10
2.100000
20
1.600000
0
SEQEND
8
0
0
TEXT
8
0
10
1.490000
20
1.560000
40
0.080000
41
1.000000
1
RB3/PGM
0
TEXT
8
0
10
2.200000
20
1.610000
40
0.080000
41
1.000000
1
36
0
POLYLINE
8
0
66
1
40
0.016000
41
0.016000
0
VERTEX
8
0
10
2.300000
20
1.700000
0
VERTEX
8
0
10
2.100000
20
1.700000
0
SEQEND
8
0
0
TEXT
8
0
10
1.810000
20
1.660000
40
0.080000
41
1.000000
1
RB2
0
TEXT
8
0
10
2.200000
20
1.710000
40
0.080000
41
1.000000
1
35
0
POLYLINE
8
0
66
1
40
0.016000
41
0.016000
0
VERTEX
8
0
10
2.300000
20
1.800000
0
VERTEX
8
0
10
2.100000
20
1.800000
0
SEQEND
8
0
0
TEXT
8
0
10
1.810000
20
1.760000
40
0.080000
41
1.000000
1
RB1
0
TEXT
8
0
10
2.200000
20
1.810000
40
0.080000
41
1.000000
1
34
0
POLYLINE
8
0
66
1
40
0.016000
41
0.016000
0
VERTEX
8
0
10
2.300000
20
1.900000
0
VERTEX
8
0
10
2.100000
20
1.900000
0
SEQEND
8
0
0
TEXT
8
0
10
1.490000
20
1.860000
40
0.080000
41
1.000000
1
RB0/INT
0
TEXT
8
0
10
2.200000
20
1.910000
40
0.080000
41
1.000000
1
33
0
POLYLINE
8
0
66
1
40
0.016000
41
0.016000
0
VERTEX
8
0
10
2.300000
20
-0.600000
0
VERTEX
8
0
10
2.100000
20
-0.600000
0
SEQEND
8
0
0
TEXT
8
0
10
1.410000
20
-0.640000
40
0.080000
41
1.000000
1
RD7/PSP7
0
TEXT
8
0
10
2.200000
20
-0.590000
40
0.080000
41
1.000000
1
30
0
POLYLINE
8
0
66
1
40
0.016000
41
0.016000
0
VERTEX
8
0
10
2.300000
20
-0.500000
0
VERTEX
8
0
10
2.100000
20
-0.500000
0
SEQEND
8
0
0
TEXT
8
0
10
1.410000
20
-0.540000
40
0.080000
41
1.000000
1
RD6/PSP6
0
TEXT
8
0
10
2.200000
20
-0.490000
40
0.080000
41
1.000000
1
29
0
POLYLINE
8
0
66
1
40
0.016000
41
0.016000
0
VERTEX
8
0
10
2.300000
20
-0.400000
0
VERTEX
8
0
10
2.100000
20
-0.400000
0
SEQEND
8
0
0
TEXT
8
0
10
1.410000
20
-0.440000
40
0.080000
41
1.000000
1
RD5/PSP5
0
TEXT
8
0
10
2.200000
20
-0.390000
40
0.080000
41
1.000000
1
28
0
POLYLINE
8
0
66
1
40
0.016000
41
0.016000
0
VERTEX
8
0
10
2.300000
20
-0.300000
0
VERTEX
8
0
10
2.100000
20
-0.300000
0
SEQEND
8
0
0
TEXT
8
0
10
1.410000
20
-0.340000
40
0.080000
41
1.000000
1
RD4/PSP4
0
TEXT
8
0
10
2.200000
20
-0.290000
40
0.080000
41
1.000000
1
27
0
POLYLINE
8
0
66
1
40
0.016000
41
0.016000
0
VERTEX
8
0
10
2.300000
20
-0.200000
0
VERTEX
8
0
10
2.100000
20
-0.200000
0
SEQEND
8
0
0
TEXT
8
0
10
1.410000
20
-0.240000
40
0.080000
41
1.000000
1
RD3/PSP3
0
TEXT
8
0
10
2.200000
20
-0.190000
40
0.080000
41
1.000000
1
22
0
POLYLINE
8
0
66
1
40
0.016000
41
0.016000
0
VERTEX
8
0
10
2.300000
20
-0.100000
0
VERTEX
8
0
10
2.100000
20
-0.100000
0
SEQEND
8
0
0
TEXT
8
0
10
1.410000
20
-0.140000
40
0.080000
41
1.000000
1
RD2/PSP2
0
TEXT
8
0
10
2.200000
20
-0.090000
40
0.080000
41
1.000000
1
21
0
POLYLINE
8
0
66
1
40
0.016000
41
0.016000
0
VERTEX
8
0
10
2.300000
20
0.300000
0
VERTEX
8
0
10
2.100000
20
0.300000
0
SEQEND
8
0
0
TEXT
8
0
10
1.330000
20
0.260000
40
0.080000
41
1.000000
1
RC7/RX/DT
0
TEXT
8
0
10
2.200000
20
0.310000
40
0.080000
41
1.000000
1
26
0
POLYLINE
8
0
66
1
40
0.016000
41
0.016000
0
VERTEX
8
0
10
2.300000
20
0.400000
0
VERTEX
8
0
10
2.100000
20
0.400000
0
SEQEND
8
0
0
TEXT
8
0
10
1.330000
20
0.360000
40
0.080000
41
1.000000
1
RC6/TX/CK
0
TEXT
8
0
10
2.200000
20
0.410000
40
0.080000
41
1.000000
1
25
0
POLYLINE
8
0
66
1
40
0.016000
41
0.016000
0
VERTEX
8
0
10
2.300000
20
0.500000
0
VERTEX
8
0
10
2.100000
20
0.500000
0
SEQEND
8
0
0
TEXT
8
0
10
1.490000
20
0.460000
40
0.080000
41
1.000000
1
RC5/SDO
0
TEXT
8
0
10
2.200000
20
0.510000
40
0.080000
41
1.000000
1
24
0
POLYLINE
8
0
66
1
40
0.016000
41
0.016000
0
VERTEX
8
0
10
2.300000
20
0.600000
0
VERTEX
8
0
10
2.100000
20
0.600000
0
SEQEND
8
0
0
TEXT
8
0
10
1.170000
20
0.560000
40
0.080000
41
1.000000
1
RC4/SDI/SDA
0
TEXT
8
0
10
2.200000
20
0.610000
40
0.080000
41
1.000000
1
23
0
POLYLINE
8
0
66
1
40
0.016000
41
0.016000
0
VERTEX
8
0
10
0.400000
20
1.300000
0
VERTEX
8
0
10
0.600000
20
1.300000
0
SEQEND
8
0
0
TEXT
8
0
10
0.650000
20
1.260000
40
0.080000
41
1.000000
1
RA3/AN3/VREF+
0
TEXT
8
0
10
0.420000
20
1.310000
40
0.080000
41
1.000000
1
5
0
POLYLINE
8
0
66
1
40
0.016000
41
0.016000
0
VERTEX
8
0
10
2.300000
20
1.000000
0
VERTEX
8
0
10
2.100000
20
1.000000
0
SEQEND
8
0
0
TEXT
8
0
10
0.850000
20
0.960000
40
0.080000
41
1.000000
1
RC0/T1OSO/T1CKI
0
TEXT
8
0
10
2.200000
20
1.010000
40
0.080000
41
1.000000
1
15
0
POLYLINE
8
0
66
1
40
0.016000
41
0.016000
0
VERTEX
8
0
10
0.400000
20
0.500000
0
VERTEX
8
0
10
0.600000
20
0.500000
0
SEQEND
8
0
0
TEXT
8
0
10
0.650000
20
0.460000
40
0.080000
41
1.000000
1
MCLR/Vpp/THV
0
TEXT
8
0
10
0.420000
20
0.510000
40
0.080000
41
1.000000
1
1
0
TEXT
8
0
10
0.592000
20
2.023000
40
0.120000
41
0.666667
1
U1
0
TEXT
8
0
10
0.592000
20
-0.798000
40
0.080000
41
1.000000
1
PIC16F877A
0
CIRCLE
8
0
10
2.500000
20
0.100000
40
0.020000
0
CIRCLE
8
0
10
2.500000
20
0.000000
40
0.020000
0
CIRCLE
8
0
10
2.500000
20
-0.100000
40
0.020000
0
CIRCLE
8
0
10
2.500000
20
-0.200000
40
0.020000
0
CIRCLE
8
0
10
2.500000
20
-0.300000
40
0.020000
0
CIRCLE
8
0
10
2.500000
20
-0.400000
40
0.020000
0
CIRCLE
8
0
10
2.500000
20
-0.500000
40
0.020000
0
CIRCLE
8
0
10
2.500000
20
-0.600000
40
0.020000
0
CIRCLE
8
0
10
0.200000
20
1.400000
40
0.020000
0
CIRCLE
8
0
10
0.200000
20
1.300000
40
0.020000
0
CIRCLE
8
0
10
0.200000
20
1.200000
40
0.020000
0
CIRCLE
8
0
10
0.200000
20
1.100000
40
0.020000
0
CIRCLE
8
0
10
0.100000
20
0.700000
40
0.020000
0
ENDSEC
0
EOF

